<svg version="1.1" id="Layer_1" xmlns="http://www.w3.org/2000/svg" xmlns:xlink="http://www.w3.org/1999/xlink" x="0px" y="0px"
	 width="100%" viewBox="0 0 346 365" enable-background="new 0 0 346 365" xml:space="preserve">
<path fill="#FFFFFF" opacity="1.000000" stroke="none" 
	d="
M1.000000,137.000000 
	C1.000000,91.349213 1.000000,46.198421 1.000000,1.023817 
	C116.276901,1.023817 231.553818,1.023817 346.915344,1.023817 
	C346.915344,122.567421 346.915344,244.134918 346.915344,365.851196 
	C231.666809,365.851196 116.333427,365.851196 1.000000,365.851196 
	C1.000000,289.779602 1.000000,213.639801 1.000000,137.000000 
M327.000000,183.500000 
	C327.000000,129.406097 327.000000,75.312202 327.000000,21.286772 
	C224.024139,21.286772 121.621727,21.286772 19.286655,21.286772 
	C19.286655,130.975998 19.286655,240.378220 19.286655,349.713165 
	C121.975983,349.713165 224.378403,349.713165 327.000000,349.713165 
	C327.000000,294.451080 327.000000,239.475540 327.000000,183.500000 
z"/>
<path fill="#000000" opacity="1.000000" stroke="none" 
	d="
M327.000000,184.000000 
	C327.000000,239.475540 327.000000,294.451080 327.000000,349.713165 
	C224.378403,349.713165 121.975983,349.713165 19.286655,349.713165 
	C19.286655,240.378220 19.286655,130.975998 19.286655,21.286772 
	C121.621727,21.286772 224.024139,21.286772 327.000000,21.286772 
	C327.000000,75.312202 327.000000,129.406097 327.000000,184.000000 
M180.489014,39.000000 
	C158.728577,39.000000 136.968155,39.000000 114.812607,39.000000 
	C114.812607,45.986874 114.812607,52.397484 114.812607,59.195057 
	C108.672112,59.195057 102.927704,59.195057 96.797592,59.195057 
	C96.797592,65.669304 96.797592,71.746269 96.797592,78.209824 
	C89.989861,78.209824 83.577896,78.209824 76.782738,78.209824 
	C76.782738,85.017967 76.782738,91.431702 76.782738,98.224838 
	C70.307396,98.224838 64.228867,98.224838 58.315651,98.224838 
	C58.315651,111.033485 58.315651,123.439766 58.315651,136.238571 
	C64.706970,136.238571 70.786865,136.238571 77.243172,136.238571 
	C77.243172,168.709503 77.243172,200.781311 77.243172,233.248230 
	C84.050255,233.248230 90.464172,233.248230 97.254112,233.248230 
	C97.254112,252.720947 97.254112,271.795135 97.254112,291.260681 
	C103.396400,291.260681 109.142372,291.260681 115.267990,291.260681 
	C115.267990,297.737946 115.267990,303.818237 115.267990,310.275391 
	C122.078766,310.275391 128.492401,310.275391 135.282852,310.275391 
	C135.282852,317.086304 135.282852,323.498627 135.282852,329.654541 
	C141.763916,329.654541 147.841370,329.654541 154.000000,329.654541 
	C154.000000,325.649536 154.000015,321.989258 154.000000,318.328979 
	C154.000000,304.330322 153.984589,290.331635 154.011246,276.333038 
	C154.017563,273.018799 153.439774,270.638214 149.159485,270.929413 
	C144.565323,271.242004 139.933441,271.000000 135.233994,271.000000 
	C135.233994,264.798676 135.233994,259.060181 135.233994,253.237701 
	C141.542389,253.237701 147.614273,253.237701 154.082642,253.237701 
	C154.082642,259.211365 154.082642,264.960327 154.082642,271.090118 
	C160.552597,271.090118 166.634537,271.090118 173.096832,271.090118 
	C173.096832,284.227417 173.096832,296.970337 173.096832,310.103699 
	C179.899994,310.103699 186.314240,310.103699 193.111145,310.103699 
	C193.111145,316.908295 193.111145,323.322174 193.111145,329.740479 
	C199.586792,329.740479 205.658569,329.740479 211.999405,329.740479 
	C211.999405,311.513519 211.986801,293.544739 212.010239,275.575989 
	C212.014801,272.072693 210.523590,270.693939 206.902588,270.928528 
	C202.331650,271.224670 197.726959,271.000000 193.324829,271.000000 
	C193.324829,264.611115 193.324829,258.868439 193.324829,253.148300 
	C199.279800,253.148300 204.908691,253.148300 211.003754,253.148300 
	C211.474747,259.065033 211.936966,264.871460 212.429871,271.063507 
	C218.857635,271.063507 225.272858,271.063507 232.070984,271.063507 
	C232.070984,277.866516 232.070984,284.281128 232.070984,291.078552 
	C238.207291,291.078552 243.956406,291.078552 250.085983,291.078552 
	C250.085983,297.548370 250.085983,303.630280 250.085983,309.753082 
	C256.894257,309.753082 263.299469,309.753082 269.750610,309.753082 
	C269.750610,290.767670 269.750610,272.030212 269.750610,252.894119 
	C263.097809,252.894119 256.683563,252.894119 249.889404,252.894119 
	C249.889404,220.424194 249.889404,188.352310 249.889404,155.884338 
	C243.753662,155.884338 238.005371,155.884338 232.261627,155.884338 
	C232.261627,149.075516 232.261627,142.670441 232.261627,135.869354 
	C238.261124,135.869354 244.009964,135.869354 249.731476,135.869354 
	C249.731476,123.062111 249.731476,110.657013 249.731476,97.855637 
	C243.724258,97.855637 237.975418,97.855637 231.848297,97.855637 
	C231.848297,91.049797 231.848297,84.636322 231.848297,77.840851 
	C225.042099,77.840851 218.629822,77.840851 211.833374,77.840851 
	C211.833374,71.367836 211.833374,65.288460 211.833374,58.825939 
	C205.360229,58.825939 199.281921,58.825939 192.818481,58.825939 
	C192.818481,52.019394 192.818481,45.608852 192.818481,39.000000 
	C188.774170,39.000000 185.128540,39.000000 180.489014,39.000000 
z"/>
<path fill="#FFFFFF" opacity="1.000000" stroke="none" 
	d="
M180.985962,39.000000 
	C185.128540,39.000000 188.774170,39.000000 192.818481,39.000000 
	C192.818481,45.608852 192.818481,52.019394 192.818481,58.825939 
	C199.281921,58.825939 205.360229,58.825939 211.833374,58.825939 
	C211.833374,65.288460 211.833374,71.367836 211.833374,77.840851 
	C218.629822,77.840851 225.042099,77.840851 231.848297,77.840851 
	C231.848297,84.636322 231.848297,91.049797 231.848297,97.855637 
	C237.975418,97.855637 243.724258,97.855637 249.731476,97.855637 
	C249.731476,110.657013 249.731476,123.062111 249.731476,135.869354 
	C244.009964,135.869354 238.261124,135.869354 232.261627,135.869354 
	C232.261627,142.670441 232.261627,149.075516 232.261627,155.884338 
	C238.005371,155.884338 243.753662,155.884338 249.889404,155.884338 
	C249.889404,188.352310 249.889404,220.424194 249.889404,252.894119 
	C256.683563,252.894119 263.097809,252.894119 269.750610,252.894119 
	C269.750610,272.030212 269.750610,290.767670 269.750610,309.753082 
	C263.299469,309.753082 256.894257,309.753082 250.085983,309.753082 
	C250.085983,303.630280 250.085983,297.548370 250.085983,291.078552 
	C243.956406,291.078552 238.207291,291.078552 232.070984,291.078552 
	C232.070984,284.281128 232.070984,277.866516 232.070984,271.063507 
	C225.272858,271.063507 218.857635,271.063507 212.429871,271.063507 
	C211.936966,264.871460 211.474747,259.065033 211.003754,253.148300 
	C204.908691,253.148300 199.279800,253.148300 193.324829,253.148300 
	C193.324829,258.868439 193.324829,264.611115 193.324829,271.000000 
	C197.726959,271.000000 202.331650,271.224670 206.902588,270.928528 
	C210.523590,270.693939 212.014801,272.072693 212.010239,275.575989 
	C211.986801,293.544739 211.999405,311.513519 211.999405,329.740479 
	C205.658569,329.740479 199.586792,329.740479 193.111145,329.740479 
	C193.111145,323.322174 193.111145,316.908295 193.111145,310.103699 
	C186.314240,310.103699 179.899994,310.103699 173.096832,310.103699 
	C173.096832,296.970337 173.096832,284.227417 173.096832,271.090118 
	C166.634537,271.090118 160.552597,271.090118 154.082642,271.090118 
	C154.082642,264.960327 154.082642,259.211365 154.082642,253.237701 
	C147.614273,253.237701 141.542389,253.237701 135.233994,253.237701 
	C135.233994,259.060181 135.233994,264.798676 135.233994,271.000000 
	C139.933441,271.000000 144.565323,271.242004 149.159485,270.929413 
	C153.439774,270.638214 154.017563,273.018799 154.011246,276.333038 
	C153.984589,290.331635 154.000000,304.330322 154.000000,318.328979 
	C154.000015,321.989258 154.000000,325.649536 154.000000,329.654541 
	C147.841370,329.654541 141.763916,329.654541 135.282852,329.654541 
	C135.282852,323.498627 135.282852,317.086304 135.282852,310.275391 
	C128.492401,310.275391 122.078766,310.275391 115.267990,310.275391 
	C115.267990,303.818237 115.267990,297.737946 115.267990,291.260681 
	C109.142372,291.260681 103.396400,291.260681 97.254112,291.260681 
	C97.254112,271.795135 97.254112,252.720947 97.254112,233.248230 
	C90.464172,233.248230 84.050255,233.248230 77.243172,233.248230 
	C77.243172,200.781311 77.243172,168.709503 77.243172,136.238571 
	C70.786865,136.238571 64.706970,136.238571 58.315651,136.238571 
	C58.315651,123.439766 58.315651,111.033485 58.315651,98.224838 
	C64.228867,98.224838 70.307396,98.224838 76.782738,98.224838 
	C76.782738,91.431702 76.782738,85.017967 76.782738,78.209824 
	C83.577896,78.209824 89.989861,78.209824 96.797592,78.209824 
	C96.797592,71.746269 96.797592,65.669304 96.797592,59.195057 
	C102.927704,59.195057 108.672112,59.195057 114.812607,59.195057 
	C114.812607,52.397484 114.812607,45.986874 114.812607,39.000000 
	C136.968155,39.000000 158.728577,39.000000 180.985962,39.000000 
M115.000000,189.504715 
	C115.000000,203.930557 115.000000,218.356415 115.000000,232.717224 
	C128.305939,232.717224 141.041611,232.717224 153.715759,232.717224 
	C153.715759,226.026566 153.715759,219.621918 153.715759,212.826538 
	C147.360107,212.826538 141.283005,212.826538 135.287415,212.826538 
	C135.287415,206.353714 135.287415,200.282562 135.287415,193.820236 
	C141.646454,193.820236 147.722809,193.820236 153.709351,193.820236 
	C153.709351,187.347153 153.709351,181.275742 153.709351,175.289307 
	C140.680954,175.289307 127.945175,175.289307 115.000000,175.289307 
	C115.000000,179.887207 115.000000,184.197556 115.000000,189.504715 
M209.501587,175.000000 
	C204.071106,175.000000 198.640610,175.000000 193.281464,175.000000 
	C193.281464,194.639618 193.281464,213.706192 193.281464,232.719940 
	C205.967194,232.719940 218.369476,232.719940 230.718567,232.719940 
	C230.718567,226.032349 230.718567,219.628052 230.718567,212.832245 
	C224.365906,212.832245 218.288025,212.832245 212.284454,212.832245 
	C212.284454,206.359756 212.284454,200.288895 212.284454,193.826416 
	C218.973450,193.826416 225.382690,193.826416 231.712585,193.826416 
	C231.712585,187.353867 231.712585,181.282822 231.712585,175.000000 
	C224.451477,175.000000 217.476303,175.000000 209.501587,175.000000 
z"/>
<path fill="#000000" opacity="1.000000" stroke="none" 
	d="
M115.000000,189.006317 
	C115.000000,184.197556 115.000000,179.887207 115.000000,175.289307 
	C127.945175,175.289307 140.680954,175.289307 153.709351,175.289307 
	C153.709351,181.275742 153.709351,187.347153 153.709351,193.820236 
	C147.722809,193.820236 141.646454,193.820236 135.287415,193.820236 
	C135.287415,200.282562 135.287415,206.353714 135.287415,212.826538 
	C141.283005,212.826538 147.360107,212.826538 153.715759,212.826538 
	C153.715759,219.621918 153.715759,226.026566 153.715759,232.717224 
	C141.041611,232.717224 128.305939,232.717224 115.000000,232.717224 
	C115.000000,218.356415 115.000000,203.930557 115.000000,189.006317 
z"/>
<path fill="#000000" opacity="1.000000" stroke="none" 
	d="
M210.001358,175.000000 
	C217.476303,175.000000 224.451477,175.000000 231.712585,175.000000 
	C231.712585,181.282822 231.712585,187.353867 231.712585,193.826416 
	C225.382690,193.826416 218.973450,193.826416 212.284454,193.826416 
	C212.284454,200.288895 212.284454,206.359756 212.284454,212.832245 
	C218.288025,212.832245 224.365906,212.832245 230.718567,212.832245 
	C230.718567,219.628052 230.718567,226.032349 230.718567,232.719940 
	C218.369476,232.719940 205.967194,232.719940 193.281464,232.719940 
	C193.281464,213.706192 193.281464,194.639618 193.281464,175.000000 
	C198.640610,175.000000 204.071106,175.000000 210.001358,175.000000 
z"/>
</svg>